<svg data-v-0dd9719b="" version="1.0" xmlns="http://www.w3.org/2000/svg" xmlns:xlink="http://www.w3.org/1999/xlink" width="100%" height="100%" viewBox="0 0 340.000000 250.000000" preserveAspectRatio="xMidYMid meet" color-interpolation-filters="sRGB" style="margin: auto;"> <rect data-v-0dd9719b="" x="0" y="0" width="100%" height="100%" fill="#ffffff" fill-opacity="1" class="background"></rect> <rect data-v-0dd9719b="" x="0" y="0" width="100%" height="100%" fill="url(#watermark)" fill-opacity="1" class="watermarklayer"></rect> <g data-v-0dd9719b="" fill="#f7b634" class="icon-text-wrapper icon-svg-group iconsvg" transform="translate(54.040000915527344,95)"><g class="iconsvg-imagesvg" transform="translate(0,0)"><g><rect fill="#f7b634" fill-opacity="0" stroke-width="2" x="0" y="0" width="60" height="60" class="image-rect"></rect> <svg filter="url(#colors5542329881)" x="0" y="0" width="60" height="60" filtersec="colorsf2285250006" class="image-svg-svg primary" style="overflow: visible;"><svg xmlns="http://www.w3.org/2000/svg" viewBox="0.7999999999999998 0.7999999999999998 87.59999 87.6"><path d="M44.6 86.4L2.8 44.6 44.6 2.8l41.8 41.8-41.8 41.8zM27.9 69.6L53.6 44h16.8L44.6 69.7V19.5L18.8 45.2h16.9l25.7-25.7" fill="none" stroke="#333" stroke-width="4" stroke-miterlimit="10"></path></svg></svg> <defs><filter id="colors5542329881"><feColorMatrix type="matrix" values="0 0 0 0 0.96484375  0 0 0 0 0.7109375  0 0 0 0 0.203125  0 0 0 1 0" class="icon-fecolormatrix"></feColorMatrix></filter> <filter id="colorsf2285250006"><feColorMatrix type="matrix" values="0 0 0 0 0.99609375  0 0 0 0 0.99609375  0 0 0 0 0.99609375  0 0 0 1 0" class="icon-fecolormatrix"></feColorMatrix></filter> <filter id="colorsb2211894467"><feColorMatrix type="matrix" values="0 0 0 0 0  0 0 0 0 0  0 0 0 0 0  0 0 0 1 0" class="icon-fecolormatrix"></feColorMatrix></filter></defs></g></g> <g transform="translate(67,6.278751373291016)"><g data-gra="path-name" fill-rule="" class="tp-name iconsvg-namesvg" transform="translate(0,0)"><g transform="scale(1)"><g><path d="M3.42-24.03L14.17-24.03 14.17-27.81 3.33-27.81 3.33-32.27 41.67-32.27 41.67-27.81 30.11-27.81 30.11-24.03 41.63-24.03 41.63-3.51Q41.63-2.21 40.63-1.13L40.63-1.13Q39.6-0.18 38.2-0.18L38.2-0.18 3.42-0.18 3.42-24.03ZM36-19.48L30.11-19.48 30.11-14.26Q30.11-13.63 30.51-13.23L30.51-13.23Q31-12.82 31.45-12.82L31.45-12.82 36-12.82 34.06-8.41 28.75-8.41Q27.77-8.41 27.04-8.78L27.04-8.78Q26.64-8.91 26.32-9.16 26.01-9.4 25.74-9.63L25.74-9.63Q25.15-10.17 24.79-10.98L24.79-10.98Q24.48-11.83 24.48-12.64L24.48-12.64 24.48-19.48 19.8-19.48 19.8-13.95 16.02-8.55 10.13-8.55 14.17-14.67 14.17-19.48 9-19.48 9-4.63 35.05-4.63Q35.41-4.63 35.68-4.91L35.68-4.91Q36-5.22 36-5.58L36-5.58 36-19.48ZM19.8-27.81L19.8-24.03 24.48-24.03 24.48-27.81 19.8-27.81ZM85.63-21.64L83.16-21.64 83.16-20.38 85.63-20.38 85.63-15.93 83.16-15.93 83.16-15.57 83.16-10.44Q81-9.27 78.84-8.26 76.68-7.25 74.43-6.34L74.43-6.34Q77.22-5.71 80.01-5.26 82.8-4.81 85.63-4.59L85.63-4.59 85.63 0Q75.19-0.77 65.7-3.42L65.7-3.42Q60.88-2.07 55.91-1.21 50.94-0.36 45.77 0L45.77 0 45.77-4.59Q48.6-4.81 51.37-5.26 54.13-5.71 56.97-6.34L56.97-6.34Q54.67-7.25 52.52-8.26 50.35-9.27 48.2-10.44L48.2-10.44 48.2-15.93 45.77-15.93 45.77-20.38 48.2-20.38 48.2-21.64 45.77-21.64 45.77-29.92 62.41-29.92 61.29-32.45 68.13-32.45 69.21-29.92 80.69-29.92Q81.67-29.92 82.57-29.54 83.47-29.16 84.15-28.48 84.82-27.81 85.23-26.91 85.63-26.01 85.63-24.97L85.63-24.97 85.63-21.64ZM76.95-12.87L76.95-15.93 54.45-15.93 54.45-12.87Q57.28-11.7 60.05-10.66 62.82-9.63 65.66-8.73L65.66-8.73Q68.49-9.63 71.3-10.66 74.11-11.7 76.95-12.87L76.95-12.87ZM54.45-20.38L76.95-20.38 76.95-23.22 79.38-23.22 79.38-24.07Q79.38-24.66 78.97-25.06 78.57-25.47 77.98-25.47L77.98-25.47 51.98-25.47 51.98-23.22 54.45-23.22 54.45-20.38ZM113.13-32.45L126.99-32.45 123.57-25.52 125.87-25.52 125.87-18.99Q125.87-18.09 125.53-17.32 125.19-16.56 124.63-16 124.06-15.43 123.28-15.1 122.49-14.76 121.64-14.76L121.64-14.76 114.75-14.76 116.46-18.63 118.35-18.63Q118.89-18.63 119.25-19.01 119.61-19.39 119.61-19.93L119.61-19.93 119.61-22.18 115.11-22.18 118.98-28.66 98.51-28.66 94.77-14.85 88.11-14.85 91.84-28.66 87.17-28.66 87.17-32.45 113.13-32.45ZM126.68-3.92L126.68 0.04 87.17 0.04 87.17-3.92 88.02-3.92 88.02-13.37 121.64-13.37Q122.49-13.37 123.28-13.03 124.06-12.69 124.63-12.13 125.19-11.56 125.53-10.78 125.87-9.99 125.87-9.13L125.87-9.13 125.87-3.92 126.68-3.92ZM119.61-3.92L119.61-8.01Q119.61-8.59 119.21-9.02 118.8-9.45 118.22-9.45L118.22-9.45 115.2-9.45 115.2-3.92 119.61-3.92ZM108.95-3.92L108.95-9.45 104.9-9.45 104.9-3.92 108.95-3.92ZM94.23-9.45L94.23-3.92 98.69-3.92 98.69-9.45 94.23-9.45ZM114.39-24.16L114.39-24.12Q113.58-22.81 112.48-21.67 111.38-20.52 110.07-19.53L110.07-19.53Q111.06-19.17 112.07-18.88 113.09-18.59 114.12-18.36L114.12-18.36 114.12-14.85Q112.14-15.12 110.14-15.73 108.14-16.34 106.2-17.23L106.2-17.23Q104.31-16.34 102.29-15.73 100.26-15.12 98.28-14.85L98.28-14.85 98.28-18.36Q99.36-18.59 100.37-18.88 101.39-19.17 102.38-19.53L102.38-19.53Q101.25-20.34 100.31-21.29 99.36-22.23 98.59-23.31L98.59-23.31 103.91-23.31Q104.99-22.23 106.2-21.42L106.2-21.42Q107.96-22.59 109.31-24.16L109.31-24.16 98.23-24.16 98.23-27.18 114.39-27.18 114.39-25.52 114.39-24.16ZM144.05-23.4L146.16-22.72 147.56-26.41 144.5-26.41 144.5-30.82 149.22-30.82 149.85-32.45 156.38-32.45 155.75-30.82 164.75-30.82 164.75-29.2 164.75-19.44Q164.75-18.86 165.15-18.45 165.56-18.04 166.19-18.04L166.19-18.04 167.54-18.04 168.25-14.13 163.49-14.13Q162.45-14.13 161.55-14.51 160.65-14.89 159.98-15.57 159.3-16.25 158.92-17.14 158.54-18.04 158.54-19.08L158.54-19.08 158.54-26.41 154.08-26.41 152.01-20.93 156.38-19.57 156.38-15.16 150.48-16.96 149.58-14.58 143.06-14.58 144.68-18.81 144.05-18.99 144.05-23.4ZM130.41-18.31L132.71-18.31Q132.98-18.31 133.18-18.52 133.38-18.72 133.38-18.99L133.38-18.99 133.38-19.75 128.7-19.75 133.38-23.58 133.38-26.64 128.7-26.64 128.7-31.05 133.38-31.05 133.38-32.45 139.59-32.45 139.59-31.05 143.55-31.05 143.55-26.64 139.59-26.64 139.59-25.7 144.05-25.7 139.59-22 139.59-18.68Q139.59-17.77 139.25-17.01 138.92-16.25 138.35-15.68 137.79-15.12 137-14.78 136.22-14.45 135.36-14.45L135.36-14.45 128.7-14.45 130.41-18.31ZM154.71-3.73L159.03-3.73Q159.62-3.73 160.02-4.14 160.43-4.54 160.43-5.13L160.43-5.13 160.43-8.05 142.65-8.05 136.94 0.04 129.42 0.04 135.09-8.05 129.11-8.05 129.11-12.51 138.24-12.51 139.05-13.63 146.56-13.63 145.75-12.51 167.18-12.51 167.18-4.91Q167.18-3.87 166.79-2.97 166.41-2.07 165.74-1.4 165.06-0.72 164.16-0.34 163.26 0.04 162.23 0.04L162.23 0.04 152.73 0.04 154.71-3.73Z" transform="translate(-3.3299999237060547, 32.45000076293945)"></path></g> <!----> <!----> <!----> <!----> <!----> <!----> <!----></g></g> <g data-gra="path-slogan" fill-rule="" class="tp-slogan iconsvg-slogansvg" fill="#203d88" transform="translate(5,38.4900016784668)"><rect x="0" height="1" y="3.9750003814697266" width="33.79500198364258"></rect> <rect height="1" y="3.9750003814697266" width="33.79500198364258" x="121.12499618530273"></rect> <g transform="translate(36.79500198364258,0)"><g transform="scale(1)"><path d="M7.64-8.58L4.73-4.41L7.78 0L6.33 0L3.98-3.52L1.64 0L0.23 0L3.33-4.41L0.42-8.58L1.88-8.58L4.03-5.30L6.23-8.58L7.64-8.58ZM9.05-8.58L10.22-8.58L10.22 0L9.05 0L9.05-8.58ZM12.89-5.53L12-5.53L12-8.58L12.89-8.58L12.89-5.53ZM20.11 0L19.27-2.48L15.80-2.48L14.91 0L13.73 0L16.97-8.58L18.28-8.58L21.38 0L20.11 0ZM17.53-7.31L16.17-3.52L18.84-3.52L17.58-7.31L17.53-7.31ZM23.81-8.58L28.13-1.64L28.13-8.58L29.25-8.58L29.25 0L27.94 0L23.58-6.94L23.53-6.94L23.53 0L22.41 0L22.41-8.58L23.81-8.58ZM41.30-8.58L38.06-3.47L38.06 0L36.89 0L36.89-3.47L33.66-8.58L35.02-8.58L37.45-4.45L39.94-8.58L41.30-8.58ZM42.52-8.58L43.69-8.58L43.69 0L42.52 0L42.52-8.58ZM47.06-8.58L51.38-1.64L51.38-8.58L52.50-8.58L52.50 0L51.19 0L46.83-6.94L46.78-6.94L46.78 0L45.66 0L45.66-8.58L47.06-8.58ZM60.70-3.61L58.08-3.61L58.08-4.59L61.83-4.59L61.83 0L61.08 0L60.80-1.08Q59.81 0.09 57.98 0.14L57.98 0.14Q56.25 0.14 55.31-0.75L55.31-0.75Q53.91-2.06 53.95-4.36L53.95-4.36Q54.28-8.63 58.03-8.81L58.03-8.81Q61.22-8.63 61.69-6L61.69-6L60.56-6Q60.09-7.78 57.98-7.83L57.98-7.83Q55.31-7.64 55.17-4.31L55.17-4.31Q55.17-0.75 58.03-0.75L58.03-0.75Q59.06-0.75 59.81-1.31L59.81-1.31Q60.75-2.06 60.70-3.61L60.70-3.61ZM69.89-6.09L69.89-6.09L68.81-6.09Q68.72-7.73 66.66-7.83L66.66-7.83Q64.73-7.78 64.73-6.33L64.73-6.33Q64.73-5.39 65.77-5.25L65.77-5.25L68.20-4.69Q70.13-4.22 70.13-2.34L70.13-2.34Q70.08 0.05 66.75 0.14L66.75 0.14Q64.92 0.14 64.17-0.61L64.17-0.61Q63.23-1.31 63.28-2.77L63.28-2.77L64.41-2.77Q64.45-0.80 66.75-0.75L66.75-0.75Q69-0.80 69.05-2.20L69.05-2.20Q69.23-3.38 67.17-3.75L67.17-3.75L65.39-4.13Q63.56-4.64 63.56-6.19L63.56-6.19Q63.70-8.72 66.56-8.81L66.56-8.81Q69.80-8.81 69.89-6.09ZM72.75-5.06L77.25-5.06L77.25-8.58L78.42-8.58L78.42 0L77.25 0L77.25-3.98L72.75-3.98L72.75 0L71.58 0L71.58-8.58L72.75-8.58L72.75-5.06ZM80.39-8.58L81.56-8.58L81.56 0L80.39 0L80.39-8.58Z" transform="translate(-0.234375, 8.8125)"></path></g></g></g></g></g><defs v-gra="od"></defs></svg>